<?xml version="1.0" encoding="utf-8"?>
<!-- Generator: Adobe Illustrator 26.0.1, SVG Export Plug-In . SVG Version: 6.00 Build 0)  -->
<svg version="1.1" id="Layer_1" xmlns="http://www.w3.org/2000/svg" xmlns:xlink="http://www.w3.org/1999/xlink" x="0px" y="0px"
	 viewBox="0 0 276.45 72.59" style="enable-background:new 0 0 276.45 72.59;" xml:space="preserve">
<style type="text/css">
	.st0{fill:#085388;}
	.st1{fill:#56575D;}
	.st2{fill:#EE742B;}
	.st3{fill:#085388;stroke:#085388;stroke-width:0.25;stroke-linecap:round;stroke-linejoin:bevel;stroke-miterlimit:10;}
	.st4{fill:#EE742B;stroke:#EE742B;stroke-width:0.25;stroke-linecap:round;stroke-linejoin:bevel;stroke-miterlimit:10;}
</style>
<g>
	<path class="st0" d="M29.08,55.62c-6.42-13.75-12.8-27.43-19.22-41.2c0.21,0,0.35,0,0.49,0c2.29,0,4.57,0.01,6.86-0.01
		c0.35,0,0.51,0.11,0.64,0.43c4.01,9.57,8.04,19.13,12.06,28.7c0.05,0.12,0.11,0.23,0.21,0.44c1.86-4.36,3.69-8.62,5.55-12.96
		c1.86,4.42,3.69,8.75,5.55,13.18c0.1-0.18,0.16-0.28,0.2-0.39c3.92-9.37,7.85-18.74,11.77-28.11c0.18-0.42,0.28-0.98,0.61-1.2
		c0.31-0.21,0.87-0.07,1.31-0.07c1.98,0,3.96,0,5.95,0c0.13,0,0.26,0,0.48,0c-6.41,13.75-12.8,27.44-19.22,41.2
		c-2.2-4.68-4.38-9.31-6.55-13.93c-0.04,0-0.07-0.01-0.11-0.01C33.47,46.31,31.29,50.93,29.08,55.62z"/>
	<path class="st1" d="M92.65,19.09c-0.21,0.75-0.42,1.51-0.62,2.26c-0.98,3.62-1.95,7.25-2.92,10.87c-0.06,0.24-0.16,0.32-0.42,0.32
		c-1.11-0.02-2.21-0.02-3.32,0c-0.3,0.01-0.39-0.11-0.45-0.37c-0.97-4.05-1.96-8.1-2.94-12.14c-0.43-1.76-0.85-3.53-1.28-5.29
		c-0.02-0.07-0.02-0.14-0.04-0.25c0.12-0.01,0.22-0.03,0.32-0.03c1.02,0,2.04,0.01,3.06-0.01c0.28,0,0.37,0.1,0.42,0.36
		c0.86,3.88,1.72,7.75,2.59,11.63c0.03,0.12,0.06,0.25,0.17,0.37c0.2-0.72,0.39-1.44,0.59-2.16c0.88-3.27,1.77-6.55,2.65-9.82
		c0.08-0.28,0.19-0.38,0.5-0.38c1.22,0.02,2.43,0.02,3.65,0c0.29,0,0.4,0.09,0.47,0.36c1,3.94,2,7.89,3.01,11.83
		c0.03,0.13,0.07,0.25,0.13,0.46c0.06-0.16,0.09-0.25,0.11-0.34c0.88-3.95,1.76-7.89,2.63-11.84c0.07-0.34,0.19-0.48,0.56-0.47
		c0.92,0.03,1.85,0.01,2.77,0.01c0.13,0,0.26,0,0.46,0c-0.09,0.41-0.17,0.77-0.26,1.13c-1.36,5.52-2.73,11.05-4.08,16.57
		c-0.07,0.31-0.2,0.4-0.51,0.39c-1.06-0.02-2.12-0.02-3.17,0c-0.27,0-0.37-0.09-0.44-0.34c-1.14-4.26-2.29-8.51-3.44-12.76
		c-0.03-0.12-0.07-0.23-0.11-0.34C92.71,19.09,92.68,19.09,92.65,19.09z"/>
	<path class="st1" d="M96.76,43.09c-1.29,0-2.6,0-3.9,0c-0.08-0.41-0.12-0.81-0.24-1.19c-0.37-1.24-1.46-2.04-2.74-2.16
		c-1.35-0.12-2.26,0.46-2.88,1.6c-0.49,0.9-0.73,1.87-0.87,2.87c-0.28,1.94-0.19,3.87,0.36,5.76c0.14,0.47,0.34,0.94,0.57,1.37
		c0.67,1.23,1.63,1.71,2.95,1.53c1.38-0.18,2.37-1.03,2.69-2.32c0.08-0.34,0.12-0.69,0.18-1.06c1.3,0,2.61,0,3.95,0
		c-0.07,1.44-0.41,2.77-1.35,3.9c-0.54,0.64-1.2,1.14-1.97,1.47c-1.9,0.81-3.88,1-5.88,0.58c-2.45-0.51-3.98-2.12-4.84-4.4
		c-0.71-1.87-0.88-3.81-0.76-5.8c0.1-1.54,0.38-3.03,1.06-4.42c1.23-2.5,3.27-3.76,6.05-3.84c1.41-0.04,2.79,0.11,4.1,0.65
		c2.2,0.91,3.3,2.61,3.53,4.92c0.02,0.16,0.02,0.31,0.03,0.47C96.79,43.04,96.78,43.05,96.76,43.09z"/>
	<path class="st0" d="M41.18,35.12c-0.42-1.04-0.8-1.98-1.18-2.92c-0.75-1.86-1.51-3.73-2.25-5.6c-0.06-0.16-0.06-0.38,0-0.54
		c1.57-3.76,3.16-7.5,4.73-11.26c0.12-0.3,0.28-0.39,0.59-0.39c2.01,0.01,4.01,0.01,6.02,0.01c0.12,0,0.24,0,0.43,0
		C46.74,21.32,43.98,28.17,41.18,35.12z"/>
	<path class="st0" d="M30.14,35.09c-2.79-6.93-5.55-13.77-8.33-20.65c0.16-0.01,0.26-0.02,0.37-0.02c2.04,0,4.09,0.01,6.13-0.01
		c0.28,0,0.41,0.09,0.51,0.34c1.57,3.74,3.15,7.48,4.74,11.22c0.1,0.24,0.11,0.44,0.01,0.69c-1.08,2.66-2.15,5.33-3.23,7.99
		C30.29,34.78,30.23,34.89,30.14,35.09z"/>
	<path class="st1" d="M137.66,32.91c-2.64-0.05-4.7-0.98-5.8-3.35c-1.18-2.57-1.13-5.2,0.28-7.69c0.94-1.65,2.47-2.48,4.33-2.74
		c1.04-0.14,2.06-0.1,3.07,0.18c1.82,0.51,3.15,1.63,3.85,3.39c0.97,2.45,0.93,4.9-0.33,7.24c-0.93,1.72-2.47,2.62-4.39,2.88
		C138.3,32.87,137.92,32.89,137.66,32.91z M140.33,26.04c-0.03,0-0.06-0.01-0.09-0.01c-0.03-0.96-0.05-1.92-0.41-2.83
		c-0.51-1.28-1.68-1.85-3.01-1.48c-0.94,0.26-1.43,0.95-1.65,1.82c-0.42,1.62-0.42,3.27,0.01,4.89c0.22,0.83,0.67,1.52,1.55,1.79
		c1.27,0.38,2.69,0.02,3.17-1.61C140.13,27.77,140.19,26.89,140.33,26.04z"/>
	<path class="st1" d="M102.1,49.87c-0.04,0.8,0.01,1.55,0.34,2.24c0.38,0.81,1.27,1.16,2.34,0.98c0.81-0.14,1.36-0.57,1.62-1.34
		c0.08-0.24,0.2-0.31,0.45-0.31c0.96,0.01,1.92,0.01,2.91,0.01c-0.08,0.94-0.36,1.76-0.94,2.47c-0.6,0.75-1.41,1.18-2.32,1.42
		c-1.4,0.36-2.81,0.39-4.22,0.06c-1.64-0.39-2.82-1.35-3.38-2.96c-0.8-2.28-0.86-4.6,0.06-6.86c1.05-2.58,3.39-3.7,6-3.44
		c1.44,0.14,2.72,0.6,3.68,1.73c0.82,0.96,1.24,2.1,1.38,3.34c0.09,0.76,0.09,1.53,0.15,2.29c0.02,0.3-0.1,0.36-0.37,0.36
		c-2.41-0.01-4.81,0-7.22,0C102.44,49.87,102.3,49.87,102.1,49.87z M106.42,47.33c-0.05-0.92-0.07-1.83-0.93-2.38
		c-0.77-0.49-1.63-0.52-2.42-0.04c-0.89,0.54-0.93,1.48-0.99,2.42C103.54,47.33,104.96,47.33,106.42,47.33z"/>
	<path class="st1" d="M147.9,49.86c-2.78,0-5.43,0-8.13,0c0.03,0.9,0,1.76,0.51,2.5c0.54,0.79,1.36,0.82,2.19,0.72
		c0.81-0.1,1.36-0.56,1.62-1.33c0.08-0.23,0.18-0.32,0.44-0.31c0.97,0.02,1.94,0.01,2.91,0.01c-0.07,1.82-1.18,3.26-2.98,3.81
		c-1.5,0.46-3.04,0.5-4.57,0.13c-1.66-0.41-2.81-1.43-3.34-3.05c-0.73-2.22-0.8-4.46,0.07-6.66c1.03-2.63,3.38-3.8,6.06-3.53
		c1.11,0.11,2.15,0.4,3.03,1.11c1.2,0.97,1.78,2.28,1.99,3.77C147.81,47.93,147.83,48.85,147.9,49.86z M139.78,47.33
		c1.44,0,2.85,0,4.26,0c0.14-1.44-0.49-2.59-1.78-2.7C140.38,44.46,139.8,45.63,139.78,47.33z"/>
	<path class="st1" d="M157.95,32.55c-1.17,0-2.31,0-3.45,0c-0.24,0-0.22-0.16-0.22-0.32c0-1.07,0.01-2.14,0.01-3.21
		c0-1.37,0.01-2.75,0-4.12c-0.01-0.42-0.05-0.85-0.15-1.26c-0.31-1.29-1.27-1.85-2.56-1.51c-1.12,0.29-1.82,1.13-1.83,2.29
		c-0.02,2.54-0.01,5.08-0.01,7.61c0,0.14,0,0.29,0,0.47c-1.22,0-2.43,0-3.66,0c0-4.29,0-8.59,0-12.9c1.21,0,2.42,0,3.67,0
		c0,0.59,0,1.16,0,1.78c0.07-0.04,0.11-0.05,0.13-0.08c1.37-2.03,4.09-2.25,5.99-1.24c1.37,0.73,2.1,1.86,2.11,3.39
		c0.03,2.96,0.01,5.93,0.01,8.89C157.98,32.4,157.97,32.45,157.95,32.55z"/>
	<path class="st1" d="M120.5,55.62c0-0.19,0-0.34,0-0.48c0-2.17,0-4.35,0-6.52c0-0.52-0.03-1.04-0.08-1.56
		c-0.16-1.53-1.39-2.29-2.9-1.81c-1.08,0.35-1.7,1.18-1.71,2.36c-0.02,2.51-0.02,5.03-0.03,7.54c0,0.48,0,0.48-0.47,0.48
		c-1.01,0-2.01,0-3.04,0c0-4.32,0-8.6,0-12.92c1.16,0,2.33,0,3.53,0c0,0.61,0,1.21,0,1.93c0.16-0.18,0.26-0.27,0.34-0.38
		c1.76-2.38,4.98-1.93,6.57-0.61c0.84,0.7,1.33,1.61,1.33,2.72c0.02,2.98,0.03,5.95,0.04,8.93c0,0.15,0.03,0.33-0.22,0.33
		C122.77,55.62,121.66,55.62,120.5,55.62z"/>
	<path class="st1" d="M118.76,28.79c1.13,0,2.24,0,3.34,0c0.4,1.36,1.82,1.97,3.12,1.37c0.76-0.35,1.18-1.62,0.2-2.18
		c-0.58-0.33-1.24-0.54-1.88-0.76c-0.8-0.27-1.64-0.45-2.43-0.75c-1.3-0.49-2.07-1.44-2.22-2.85c-0.17-1.54,0.41-2.7,1.71-3.52
		c1.13-0.71,2.38-1.01,3.71-1c0.89,0.01,1.77,0.12,2.6,0.48c1.37,0.59,2.32,1.98,2.22,3.32c-0.12,0.01-0.23,0.01-0.35,0.02
		c-0.71,0-1.41-0.01-2.12,0.01c-0.44,0.01-0.84,0.06-0.98-0.54c-0.05-0.22-0.36-0.42-0.6-0.54c-0.56-0.26-1.16-0.25-1.74-0.07
		c-0.39,0.11-0.6,0.41-0.66,0.8c-0.06,0.4,0,0.78,0.37,0.99c0.43,0.24,0.89,0.44,1.35,0.6c0.92,0.32,1.85,0.57,2.76,0.89
		c0.69,0.25,1.31,0.65,1.79,1.21c1.14,1.32,1.09,3.43-0.12,4.74c-0.92,0.99-2.09,1.53-3.39,1.77c-1.5,0.28-2.98,0.17-4.39-0.46
		c-1.33-0.59-2.1-1.61-2.3-3.05C118.75,29.13,118.76,28.98,118.76,28.79z"/>
	<path class="st1" d="M134.4,53.1c0,0.7,0.01,1.35-0.01,2c0,0.07-0.12,0.19-0.19,0.21c-1.28,0.22-2.56,0.46-3.87,0.21
		c-1.24-0.23-1.93-1.01-2.16-2.21c-0.1-0.5-0.15-1.01-0.15-1.52C128,49.76,128,47.74,128,45.71c0-0.15,0-0.31,0-0.49
		c-0.85,0-1.65,0-2.49,0c0-0.82,0-1.61,0-2.45c0.8,0,1.6,0,2.47,0c0-0.54,0-1.03,0-1.53c-0.01-0.98-0.01-0.98,0.92-1.32
		c0.9-0.33,1.79-0.66,2.74-1.01c0,1.29,0,2.53,0,3.82c0.93,0,1.83,0,2.75,0c0,0.82,0,1.61,0,2.45c-0.9,0-1.8,0-2.73,0
		c-0.01,0.18-0.02,0.29-0.02,0.41c0,1.85,0,3.69,0.01,5.54c0,0.41,0.06,0.82,0.14,1.23c0.09,0.43,0.38,0.71,0.83,0.75
		c0.38,0.04,0.77,0.03,1.16,0.03C133.97,53.14,134.16,53.12,134.4,53.1z"/>
	<path class="st1" d="M71.21,55.7c-0.51,0-0.98,0-1.48,0c0-13.76,0-27.5,0-41.27c0.5,0,0.98,0,1.48,0
		C71.21,28.19,71.21,41.93,71.21,55.7z"/>
	<path class="st1" d="M173.6,64.42c-0.51,0-0.98,0-1.48,0c0-18.44,0-36.85,0-55.3c0.5,0,0.98,0,1.48,0
		C173.6,27.56,173.6,45.97,173.6,64.42z"/>
	<path class="st1" d="M116.43,32.53c-0.73,0-1.46,0-2.19,0c-0.3,0-0.61-0.01-0.91,0c-0.25,0.01-0.33-0.09-0.31-0.32
		c0.01-0.07,0-0.15,0-0.22c0-5.67,0-11.35,0-17.02c0-0.53,0-0.53,0.54-0.53c0.95,0,1.89,0,2.87,0
		C116.43,20.49,116.43,26.49,116.43,32.53z"/>
	<path class="st1" d="M150.09,42.69c1.1,0,2.21,0,3.35,0c0.04,0.76,0.07,1.51,0.1,2.25c0.02,0.03,0.04,0.06,0.07,0.08
		c0.79-1.99,2.37-2.58,4.33-2.54c0,1.13,0,2.23,0,3.39c-0.42,0-0.84-0.01-1.26,0c-0.29,0.01-0.59,0.03-0.86,0.11
		c-1.27,0.38-1.78,0.96-1.85,2.61c-0.08,2.12-0.02,4.25-0.02,6.37c0,0.19,0,0.39,0,0.61c-1.25,0-2.49,0-3.74,0
		C150.18,51.31,150.13,47.01,150.09,42.69z"/>
	<path class="st1" d="M110.07,32.51c-1.21,0-2.37,0-3.55,0c0-4.36,0-8.7,0-13.06c1.19,0,2.36,0,3.55,0
		C110.07,23.81,110.07,28.15,110.07,32.51z"/>
	<path class="st0" d="M35.66,21.45c-0.96-2.37-1.89-4.67-2.83-7c1.91,0,3.76,0,5.66,0C37.55,16.78,36.62,19.07,35.66,21.45z"/>
	<path class="st1" d="M110.07,14.48c0,1.06,0,2.07,0,3.1c-1.19,0-2.35,0-3.54,0c0-1.03,0-2.05,0-3.1
		C107.7,14.48,108.87,14.48,110.07,14.48z"/>
</g>
<g>
	<polygon class="st0" points="228.5,50.11 223.58,58.44 225.59,58.44 225.59,61.37 231.41,61.37 231.41,58.44 233.43,58.44 	"/>
	<polygon class="st2" points="228.5,49.5 233.43,44.19 231.41,44.19 231.41,33.67 225.59,33.67 225.59,44.19 223.58,44.19 	"/>
	<g>
		<path class="st3" d="M190.66,37.51c-0.06-0.28-0.18-0.53-0.37-0.75c-0.42-0.45-1.1-0.64-1.71-0.63c-0.65,0.01-1.38,0.25-1.8,0.78
			c-0.25,0.31-0.33,0.67-0.3,1.05c0.18,2.41,4.03,0.52,4.5,2.72c0.31,1.45-1.07,2.32-2.37,2.32c-1,0-2.22-0.57-2.34-1.68l-0.01-0.07
			l0.16-0.02l0.01,0.07c0.11,1.03,1.26,1.55,2.19,1.55c1.2,0,2.49-0.77,2.21-2.14c-0.44-2.04-4.32-0.18-4.49-2.73
			c-0.04-0.41,0.07-0.82,0.32-1.15c1-1.29,3.83-1.13,4.16,0.65l0.01,0.08l-0.15,0.03L190.66,37.51z"/>
		<path class="st3" d="M193.18,41.07v-4.99h0.16v5c0,1.19,1.19,1.77,2.25,1.77c1.05,0,2.24-0.59,2.24-1.78v-4.99h0.16v5
			c0,1.26-1.27,1.93-2.4,1.93C194.44,43.02,193.18,42.35,193.18,41.07z"/>
		<path class="st3" d="M200.31,36.07h0.08h2.29c2.75,0,2.75,4.26,0,4.26h-2.22v2.61h-0.16c0-2.27,0-4.52,0-6.79V36.07z
			 M202.68,40.18c2.55,0,2.55-3.95,0-3.95h-2.22v3.95H202.68z"/>
		<path class="st3" d="M206.81,36.07h0.08h2.29c2.75,0,2.75,4.26,0,4.26h-2.22v2.61h-0.16c0-2.27,0-4.52,0-6.79V36.07z
			 M209.18,40.18c2.55,0,2.55-3.95,0-3.95h-2.22v3.95H209.18z"/>
		<path class="st3" d="M213.46,42.78h3.69v0.16c-1.28,0-2.56,0-3.85,0v-6.86h0.16V42.78z"/>
		<path class="st3" d="M217.29,36.08l2.42,3.86l2.41-3.86h0.18l-2.52,4.02v2.84h-0.16V40.1l-2.52-4.02H217.29z"/>
		<path class="st3" d="M239.73,38.17c-0.16-0.36-0.38-0.69-0.65-0.96c-0.58-0.6-1.38-0.96-2.27-0.96s-1.69,0.36-2.27,0.96
			c-0.58,0.6-0.94,1.41-0.94,2.31c0,0.9,0.36,1.71,0.94,2.3c0.58,0.6,1.38,0.97,2.27,0.97s1.69-0.37,2.27-0.97
			c0.27-0.27,0.49-0.59,0.65-0.95h0.17c-0.17,0.4-0.41,0.76-0.71,1.07c-0.61,0.63-1.44,1.01-2.37,1.01c-0.93,0-1.77-0.38-2.37-1.01
			c-0.6-0.62-0.98-1.47-0.98-2.42c0-0.94,0.38-1.8,0.98-2.41c0.61-0.63,1.44-1.01,2.37-1.01c0.93,0,1.77,0.39,2.37,1.01
			c0.3,0.3,0.54,0.67,0.71,1.07H239.73z"/>
		<path class="st3" d="M242.15,39.39h4.31v-3.31h0.16v6.86h-0.16v-3.4h-4.31v3.4h-0.15v-6.86h0.15V39.39z"/>
		<path class="st3" d="M253.84,41.29h-3.95l-0.68,1.65h-0.17l2.76-6.96h0.17l2.76,6.96h-0.17L253.84,41.29z M249.95,41.14h3.82
			l-1.91-4.96L249.95,41.14z"/>
		<path class="st3" d="M257.35,36.22v6.57h-0.15v-6.57H257.35z"/>
		<path class="st3" d="M260.34,42.94v-6.88l0.14,0.01l5.03,6.59v-6.59h0.15v6.87h-0.16l-5-6.55v6.55H260.34z"/>
	</g>
	<g>
		<path class="st4" d="M194.1,51.96v8.74h-0.2v-8.74H194.1z"/>
		<path class="st4" d="M197.74,60.89v-9.14l0.18,0.01l7.18,8.76v-8.76h0.2v9.13h-0.21l-7.15-8.71v8.71H197.74z"/>
		<path class="st4" d="M209.04,51.96v8.74h-0.2v-8.74H209.04z"/>
		<path class="st4" d="M214.94,60.93v-8.96h-3.15v-0.21h6.51v0.21h-3.16v8.96H214.94z"/>
		<path class="st4" d="M221.07,51.96v8.74h-0.2v-8.74H221.07z"/>
		<path class="st4" d="M236.9,60.93v-8.96h-3.15v-0.21h6.51v0.21h-3.16v8.96H236.9z"/>
		<path class="st4" d="M243.65,51.96v8.74h-0.2v-8.74H243.65z"/>
		<path class="st4" d="M254.09,51.77h0.22l-3.67,9.26h-0.22l-3.67-9.26h0.22l3.55,9L254.09,51.77z"/>
		<path class="st4" d="M257.38,60.7h6.14v0.19h-6.33h-0.03v-9.12h6.33v0.2h-6.12v4.25h5.48v0.21h-5.48V60.7z"/>
	</g>
	<path class="st0" d="M227.68,8.67c4.23,0,8.46,0,12.69,0c2.21,0,4.14-0.27,6.22,0.67c1.79,0.8,3.34,2.14,4.44,3.77
		c1.67,2.46,2.36,5.5,2.3,8.47c-0.1,4.57-3.28,8.65-7.61,10.14c-2.48,0.85-16.44,1.05-20.68,0.35c-4.44-0.73-8.16-3.89-8.95-8.37
		c-0.02-0.14-0.3-2.02-0.36-2.02c0,0-2.42,0-2.42,0s4.57-5.28,4.57-5.28l4.57,5.28l-2.32,0.02c0,0,0.44,1.08,0.7,1.53
		c1.4,2.45,3.94,3.78,6.73,3.78c4.32,0,8.65,0.01,12.97-0.01c0.89,0,1.8-0.01,2.66-0.23c2.8-0.73,4.82-4.34,4.39-7.12
		c-0.56-3.59-3.83-5.09-7.12-5.2c-2.71-0.09-5.42,0.02-8.13,0.02c0,0-0.91-2.26-1.64-3.23C229.87,10.15,228.73,9.48,227.68,8.67z"/>
	<path class="st2" d="M218.95,32.44c-4.23,0-8.46,0-12.69,0c-2.21,0-4.14,0.27-6.22-0.67c-1.79-0.8-3.34-2.14-4.44-3.77
		c-1.67-2.46-2.36-5.5-2.3-8.47c0.1-4.57,3.28-8.65,7.61-10.14c2.48-0.85,16.44-1.05,20.68-0.35c4.44,0.73,8.16,3.89,8.95,8.37
		c0.02,0.14,0.3,2.02,0.36,2.02c0,0,2.42,0,2.42,0s-4.57,5.28-4.57,5.28l-4.57-5.28l2.32-0.02c0,0-0.44-1.08-0.7-1.53
		c-1.4-2.45-3.94-3.78-6.73-3.78c-4.32,0-8.65-0.01-12.97,0.01c-0.89,0-1.8,0.01-2.66,0.23c-2.8,0.73-4.82,4.34-4.39,7.12
		c0.56,3.59,3.83,5.09,7.12,5.2c2.71,0.09,5.42-0.02,8.13-0.02c0,0,0.91,2.26,1.64,3.23C216.76,30.95,217.9,31.62,218.95,32.44z"/>
</g>
</svg>
